<?xml version="1.0" encoding="UTF-8"?>
<!DOCTYPE svg PUBLIC "-//W3C//DTD SVG 1.1//EN" "http://www.w3.org/Graphics/SVG/1.1/DTD/svg11.dtd">
<svg width="321mm" height="245mm" viewBox="0 0 32100 24500" version="1.1" baseProfile="tiny" xmlns="http://www.w3.org/2000/svg" stroke-width="28.222" stroke-linejoin="round" xml:space="preserve">
 <path fill="rgb(255,255,255)" stroke="none" d="M 16134,24464 L 93,24464 93,0 32175,0 32175,24464 16134,24464 Z"/>
 <path fill="none" stroke="rgb(179,179,179)" stroke-linejoin="round" d="M 14967,23028 L 2782,23028 2782,687 27151,687 27151,23028 14967,23028 Z"/>
 <path fill="none" stroke="rgb(179,179,179)" stroke-linejoin="round" d="M 27151,23027 L 2782,23027"/>
 <path fill="none" stroke="rgb(179,179,179)" stroke-linejoin="round" d="M 27151,20234 L 2782,20234"/>
 <path fill="none" stroke="rgb(179,179,179)" stroke-linejoin="round" d="M 27151,17441 L 2782,17441"/>
 <path fill="none" stroke="rgb(179,179,179)" stroke-linejoin="round" d="M 27151,14648 L 2782,14648"/>
 <path fill="none" stroke="rgb(179,179,179)" stroke-linejoin="round" d="M 27151,11857 L 2782,11857"/>
 <path fill="none" stroke="rgb(179,179,179)" stroke-linejoin="round" d="M 27151,9064 L 2782,9064"/>
 <path fill="none" stroke="rgb(179,179,179)" stroke-linejoin="round" d="M 27151,6271 L 2782,6271"/>
 <path fill="none" stroke="rgb(179,179,179)" stroke-linejoin="round" d="M 27151,3478 L 2782,3478"/>
 <path fill="none" stroke="rgb(179,179,179)" stroke-linejoin="round" d="M 27151,686 L 2782,686"/>
 <path fill="none" stroke="rgb(179,179,179)" stroke-linejoin="round" d="M 2782,23177 L 2782,23027"/>
 <path fill="none" stroke="rgb(179,179,179)" stroke-linejoin="round" d="M 2782,23177 L 2782,23027"/>
 <path fill="none" stroke="rgb(179,179,179)" stroke-linejoin="round" d="M 6843,23177 L 6843,23027"/>
 <path fill="none" stroke="rgb(179,179,179)" stroke-linejoin="round" d="M 6843,23177 L 6843,23027"/>
 <path fill="none" stroke="rgb(179,179,179)" stroke-linejoin="round" d="M 10905,23177 L 10905,23027"/>
 <path fill="none" stroke="rgb(179,179,179)" stroke-linejoin="round" d="M 10905,23177 L 10905,23027"/>
 <path fill="none" stroke="rgb(179,179,179)" stroke-linejoin="round" d="M 14967,23177 L 14967,23027"/>
 <path fill="none" stroke="rgb(179,179,179)" stroke-linejoin="round" d="M 14967,23177 L 14967,23027"/>
 <path fill="none" stroke="rgb(179,179,179)" stroke-linejoin="round" d="M 19027,23177 L 19027,23027"/>
 <path fill="none" stroke="rgb(179,179,179)" stroke-linejoin="round" d="M 19027,23177 L 19027,23027"/>
 <path fill="none" stroke="rgb(179,179,179)" stroke-linejoin="round" d="M 23089,23177 L 23089,23027"/>
 <path fill="none" stroke="rgb(179,179,179)" stroke-linejoin="round" d="M 23089,23177 L 23089,23027"/>
 <path fill="none" stroke="rgb(179,179,179)" stroke-linejoin="round" d="M 27151,23177 L 27151,23027"/>
 <path fill="none" stroke="rgb(179,179,179)" stroke-linejoin="round" d="M 27151,23177 L 27151,23027"/>
 <path fill="none" stroke="rgb(179,179,179)" stroke-linejoin="round" d="M 2782,23027 L 27151,23027"/>
 <path fill="none" stroke="rgb(179,179,179)" stroke-linejoin="round" d="M 2632,23027 L 2782,23027"/>
 <path fill="none" stroke="rgb(179,179,179)" stroke-linejoin="round" d="M 2632,23027 L 2782,23027"/>
 <path fill="none" stroke="rgb(179,179,179)" stroke-linejoin="round" d="M 2632,20234 L 2782,20234"/>
 <path fill="none" stroke="rgb(179,179,179)" stroke-linejoin="round" d="M 2632,20234 L 2782,20234"/>
 <path fill="none" stroke="rgb(179,179,179)" stroke-linejoin="round" d="M 2632,17441 L 2782,17441"/>
 <path fill="none" stroke="rgb(179,179,179)" stroke-linejoin="round" d="M 2632,17441 L 2782,17441"/>
 <path fill="none" stroke="rgb(179,179,179)" stroke-linejoin="round" d="M 2632,14648 L 2782,14648"/>
 <path fill="none" stroke="rgb(179,179,179)" stroke-linejoin="round" d="M 2632,14648 L 2782,14648"/>
 <path fill="none" stroke="rgb(179,179,179)" stroke-linejoin="round" d="M 2632,11857 L 2782,11857"/>
 <path fill="none" stroke="rgb(179,179,179)" stroke-linejoin="round" d="M 2632,11857 L 2782,11857"/>
 <path fill="none" stroke="rgb(179,179,179)" stroke-linejoin="round" d="M 2632,9064 L 2782,9064"/>
 <path fill="none" stroke="rgb(179,179,179)" stroke-linejoin="round" d="M 2632,9064 L 2782,9064"/>
 <path fill="none" stroke="rgb(179,179,179)" stroke-linejoin="round" d="M 2632,6271 L 2782,6271"/>
 <path fill="none" stroke="rgb(179,179,179)" stroke-linejoin="round" d="M 2632,6271 L 2782,6271"/>
 <path fill="none" stroke="rgb(179,179,179)" stroke-linejoin="round" d="M 2632,3478 L 2782,3478"/>
 <path fill="none" stroke="rgb(179,179,179)" stroke-linejoin="round" d="M 2632,3478 L 2782,3478"/>
 <path fill="none" stroke="rgb(179,179,179)" stroke-linejoin="round" d="M 2632,686 L 2782,686"/>
 <path fill="none" stroke="rgb(179,179,179)" stroke-linejoin="round" d="M 2632,686 L 2782,686"/>
 <path fill="none" stroke="rgb(179,179,179)" stroke-linejoin="round" d="M 2782,23027 L 2782,686"/>
 <path fill="none" stroke="rgb(255,66,14)" stroke-width="80" stroke-linejoin="round" d="M 26671,23027 L 26067,23027 25650,22186 24865,22186 24818,22186 24558,21694 24440,21345 24399,21345 24385,21074 24034,20853 23942,20666 23824,20666 23725,20504 23550,20362 23490,20234 23305,20234 23064,20118 23064,20013 23005,19916 22971,19826 22839,19742 22757,19664 22604,19590 22570,19590 22544,19521 22419,19455 22391,19393 22384,19334 22353,19277 22345,19277 22280,19277 22125,19224 22081,19172 22031,19122 21984,19075 21958,19029 21924,19029 21814,18985 21810,18942 21761,18901 21736,18861 21717,18823 21716,18786 21707,18749 21674,18714 21564,18680 21492,18647 21479,18615 21459,18583 21445,18552 21435,18552 21416,18522 21402,18493 21388,18465 21377,18437 21359,18409 21356,18383 21259,18357 21255,18331 21241,18306 21192,18282 21125,18258 21114,18234 20962,18211 20957,18211 20884,18188 20864,18166 20795,18144 20726,18144 20719,18144 20698,18123 20607,18102 20559,18081 20552,18061 20533,18041 20522,18021 20506,18001 20484,17982 20478,17963 20475,17945 20464,17927 20454,17909 20453,17891 20451,17874 20451,17856 20450,17839 20444,17823 20430,17806 20421,17790 20419,17774 20405,17758 20395,17742 20395,17727 20393,17712 20392,17697 20390,17682 20389,17667 20384,17652 20375,17638 20369,17624 20364,17610 20354,17596 20342,17582 20334,17569 20332,17555 20324,17542 20322,17529 20321,17516 20321,17503 20320,17491 20317,17466 20304,17453 20300,17441 20284,17429 20270,17417 20268,17405 20264,17393 20231,17382 20219,17370 20198,17370 20164,17359 20163,17348 20161,17336 20157,17325 20156,17314 20155,17304 20151,17282 20146,17271 20146,17261 20134,17251 20128,17230 20114,17220 20106,17210 20094,17190 20092,17180 20067,17170 20059,17161 20057,17151 20050,17142 20048,17132 20030,17123 20029,17113 20024,17104 20010,17086 19984,17077 19977,17068 19952,17059 19943,17050 19942,17042 19940,17033 19937,17024 19930,17007 19906,16999 19896,16982 19885,16966 19873,16966 19868,16957 19831,16949 19830,16941 19821,16933 19820,16917 19807,16909 19803,16902 19777,16894 19777,16886 19773,16879 19769,16863 19763,16848 19756,16834 19755,16826 19745,16812 19743,16797 19726,16790 19718,16783 19677,16776 19670,16769 19666,16755 19664,16742 19664,16728 19661,16715 19660,16701 19658,16688 19654,16682 19654,16675 19650,16663 19647,16650 19640,16637 19637,16625 19626,16612 19614,16600 19612,16594 19608,16582 19601,16570 19595,16564 19588,16559 19580,16559 19575,16547 19572,16541 19556,16530 19537,16518 19526,16518 19518,16507 19504,16507 19483,16501 19482,16490 19471,16485 19469,16479 19460,16474 19448,16474 19447,16468 19431,16452 19421,16441 19418,16436 19414,16426 19401,16415 19383,16415 19374,16410 19364,16405 19358,16400 19336,16389 19333,16384 19299,16384 19287,16384 19284,16374 19279,16369 19268,16359 19250,16349 19249,16344 19236,16339 19234,16335 19224,16325 19209,16325 19191,16320 19179,16315 19163,16315 19152,16310 19139,16306 19119,16296 19117,16291 19077,16282 19065,16268 19061,16264 19030,16259 19027,16254 18997,16245 18991,16241 18986,16227 18976,16223 18970,16214 18967,16210 18953,16210 18937,16205 18935,16201 18926,16201 18910,16192 18907,16188 18881,16184 18870,16179 18855,16175 18837,16175 18819,16171 18800,16171 18784,16166 18774,16162 18756,16154 18738,16150 18732,16145 18714,16137 18703,16133 18672,16125 18672,16121 18667,16109 18664,16104 18649,16100 18640,16096 18631,16088 18630,16081 18616,16073 18590,16069 18583,16069 18565,16061 18548,16057 18539,16049 18522,16045 18512,16042 18504,16030 18501,16026 18486,16019 18474,16015 18473,16011 18451,16008 18443,16008 18428,16000 18420,15989 18406,15982 18404,15978 18390,15978 18386,15975 18372,15960 18356,15953 18354,15950 18349,15946 18335,15935 18319,15932 18309,15925 18302,15922 18291,15915 18278,15911 18269,15908 18258,15904 18254,15898 18251,15894 18242,15884 18224,15874 18212,15871 18194,15861 18191,15857 18183,15854 18171,15848 18162,15844 18153,15841 18141,15831 18128,15828 18112,15819 18106,15815 18102,15812 18090,15803 18085,15800 18077,15790 18074,15787 18062,15778 18060,15775 18046,15766 18034,15763 18019,15751 18007,15739 18006,15736 17991,15736 17980,15724 17976,15721 17964,15718 17957,15709 17948,15703 17945,15698 17936,15695 17909,15686 17907,15683 17896,15678 17890,15672 17879,15663 17863,15658 17838,15650 17822,15644 17809,15638 17796,15630 17785,15625 17770,15619 17762,15617 17759,15611 17739,15606 17737,15603 17730,15593 17725,15590 17718,15585 17709,15577 17703,15569 17697,15564 17690,15556 17675,15554 17662,15551 17648,15541 17647,15538 17635,15526 17627,15511 17619,15506 17617,15496 17603,15489 17595,15487 17593,15484 17582,15472 17570,15470 17565,15467 17549,15463 17548,15458 17537,15453 17530,15446 17512,15446 17509,15444 17498,15432 17485,15427 17478,15418 17471,15409 17464,15405 17456,15393 17451,15391 17444,15382 17443,15380 17427,15371 17417,15367 17416,15362 17405,15351 17402,15347 17398,15339 17388,15326 17374,15315 17371,15313 17360,15309 17348,15299 17335,15286 17334,15284 17324,15272 17318,15268 17313,15260 17305,15256 17289,15244 17279,15234 17264,15222 17263,15220 17251,15212 17245,15207 17238,15205 17228,15193 17219,15188 17217,15180 17210,15173 17189,15167 17180,15161 17177,15154 17167,15139 17155,15129 17152,15127 17141,15116 17139,15114 17124,15104 17120,15100 17113,15095 17097,15090 17094,15088 17086,15076 17085,15074 17070,15067 17066,15060 17059,15055 17044,15045 17030,15040 17015,15033 17002,15025 16991,15022 16988,15020 16977,15010 16974,15007 16959,14999 16947,14994 16933,14983 16924,14981 16922,14980 16908,14973 16903,14968 16894,14961 16883,14954 16880,14951 16864,14946 16862,14942 16853,14931 16849,14928 16839,14922 16828,14914 16825,14911 16812,14905 16807,14901 16795,14893 16789,14886 16780,14882 16772,14874 16770,14871 16763,14861 16757,14854 16752,14848 16742,14843 16730,14835 16729,14834 16718,14821 16715,14821 16701,14812 16696,14809 16683,14802 16671,14799 16666,14795 16655,14788 16644,14786 16637,14780 16633,14777 16619,14769 16603,14760 16599,14756 16592,14751 16584,14743 16578,14735 16565,14728 16563,14727 16548,14716 16538,14709 16531,14703 16524,14696 16514,14689 16508,14686 16497,14674 16496,14673 16482,14667 16475,14663 16468,14657 16462,14649 16453,14643 16445,14636 16441,14633 16434,14622 16427,14618 16422,14610 16412,14602 16404,14596 16400,14595 16380,14582 16371,14573 16368,14570 16359,14564 16346,14555 16343,14554 16330,14545 16321,14543 16317,14540 16304,14527 16302,14526 16293,14516 16288,14513 16278,14503 16276,14500 16262,14493 16261,14490 16245,14480 16239,14476 16232,14473 16221,14469 16212,14463 16207,14460 16195,14451 16191,14449 16180,14443 16171,14436 16166,14432 16157,14424 16152,14416 16142,14409 16139,14407 16127,14397 16123,14397 16113,14387 16104,14383 16099,14381 16089,14371 16085,14367 16073,14357 16072,14355 16055,14346 16051,14344 16044,14338 16037,14331 16030,14328 16018,14317 16015,14315 16000,14305 15999,14303 15989,14295 15982,14291 15975,14287 15969,14278 15961,14271 15953,14264 15948,14260 15935,14251 15933,14249 15922,14238 15919,14235 15907,14229 15904,14225 15891,14213 15890,14211 15877,14202 15871,14198 15865,14192 15856,14184 15851,14182 15837,14174 15832,14172 15824,14164 15814,14158 15809,14157 15794,14148 15789,14144 15783,14136 15778,14132 15769,14121 15766,14118 15755,14106 15753,14104 15742,14096 15736,14091 15726,14087 15713,14080 15711,14078 15700,14068 15695,14065 15686,14056 15676,14051 15672,14046 15662,14038 15659,14036 15646,14026 15630,14016 15628,14012 15617,14005 15607,13998 15605,13995 15596,13985 15590,13981 15576,13971 15563,13963 15559,13959 15550,13952 15545,13946 15533,13940 15523,13933 15519,13931 15511,13919 15508,13915 15495,13907 15493,13903 15484,13893 15476,13889 15467,13883 15462,13879 15454,13874 15441,13866 15439,13865 15428,13853 15425,13848 15412,13840 15403,13826 15396,13823 15384,13818 15377,13813 15371,13808 15359,13800 15356,13799 15343,13790 15337,13787 15330,13783 15320,13773 15316,13770 15303,13760 15291,13746 15288,13745 15275,13733 15263,13720 15261,13718 15246,13707 15245,13704 15233,13694 15219,13683 15215,13679 15205,13672 15198,13667 15193,13663 15182,13654 15179,13651 15171,13639 15165,13634 15155,13627 15151,13621 15141,13613 15138,13611 15130,13601 15123,13597 15112,13585 15110,13584 15102,13574 15096,13570 15083,13560 15069,13548 15054,13534 15042,13521 15041,13521 15027,13511 15024,13506 15013,13496 15012,13494 15000,13481 14986,13470 14982,13468 14972,13459 14965,13454 14959,13450 14951,13441 14945,13437 14938,13426 14931,13420 14927,13415 14918,13406 14913,13402 14904,13395 14896,13388 14891,13383 14883,13375 14876,13369 14867,13361 14863,13356 14854,13348 14848,13342 14838,13335 14835,13331 14825,13322 14821,13319 14810,13308 14808,13307 14794,13297 14792,13294 14781,13282 14767,13269 14765,13267 14755,13255 14753,13254 14741,13241 14739,13239 14727,13228 14725,13225 14713,13216 14711,13216 14698,13204 14696,13202 14684,13192 14680,13188 14669,13179 14663,13176 14657,13169 14651,13163 14642,13156 14631,13149 14629,13145 14621,13136 14614,13129 14608,13122 14601,13115 14595,13109 14588,13103 14582,13096 14575,13090 14568,13081 14560,13071 14557,13069 14546,13058 14542,13054 14533,13044 14530,13041 14519,13030 14505,13016 14492,13003 14478,12992 14475,12990 14464,12978 14461,12975 14450,12963 14438,12950 14423,12937 14409,12922 14397,12910 14394,12909 14382,12896 14370,12883 14367,12881 14355,12869 14342,12857 14340,12853 14330,12842 14327,12838 14322,12830 14312,12818 14309,12816 14299,12804 14286,12790 14276,12778 14271,12770 14265,12765 14257,12757 14252,12751 14244,12741 14242,12738 14231,12727 14226,12722 14217,12711 14204,12696 14193,12684 14190,12681 14182,12671 14177,12665 14168,12656 14163,12651 14154,12643 14149,12637 14143,12630 14135,12620 14132,12615 14126,12605 14120,12596 14115,12591 14106,12581 14103,12578 14095,12569 14089,12563 14080,12554 14077,12551 14065,12538 14054,12524 14051,12522 14042,12510 14039,12508 14030,12496 14024,12490 14018,12482 14012,12475 14009,12471 14000,12459 13996,12456 13987,12445 13984,12440 13978,12432 13969,12421 13966,12417 13956,12404 13944,12388 13941,12385 13934,12378 13928,12371 13922,12363 13915,12353 13906,12339 13902,12337 13893,12325 13886,12317 13883,12312 13873,12297 13863,12284 13860,12278 13857,12273 13847,12261 13843,12254 13837,12245 13833,12239 13827,12230 13820,12221 13810,12208 13806,12202 13803,12195 13793,12179 13782,12166 13779,12161 13775,12155 13765,12136 13758,12123 13751,12110 13744,12099 13737,12087 13730,12073 13723,12059 13715,12046 13708,12031 13701,12020 13694,12008 13686,11992 13679,11979 13672,11964 13668,11957 13664,11949 13661,11941 13653,11926 13646,11912 13638,11899 13631,11886 13627,11880 13623,11874 13616,11859 13612,11854 13608,11848 13601,11835 13597,11829 13593,11823 13585,11811 13581,11804 13577,11797 13570,11783 13558,11766 13550,11752 13542,11741 13534,11728 13530,11723 13526,11716 13514,11699 13506,11688 13502,11685 13494,11673 13490,11667 13486,11663 13474,11649 13461,11635 13449,11623 13436,11610 13432,11606 13424,11597 13419,11593 13407,11582 13394,11569 13376,11556 13363,11545 13359,11541 13350,11532 13346,11529 13337,11521 13332,11517 13324,11508 13319,11504 13310,11497 13306,11491 13296,11482 13292,11478 13283,11470 13274,11461 13269,11456 13260,11448 13255,11444 13246,11434 13241,11430 13232,11421 13227,11417 13217,11409 13213,11405 13203,11398 13198,11392 13189,11384 13184,11379 13174,11371 13159,11360 13155,11355 13145,11347 13140,11342 13130,11334 13125,11331 13120,11327 13110,11319 13105,11316 13089,11304 13074,11292 13064,11285 13053,11277 13048,11273 13037,11265 13022,11253 13016,11249 13006,11241 13000,11236 12995,11232 12984,11225 12978,11220 12968,11209 12957,11199 12951,11195 12940,11185 12923,11171 12912,11162 12906,11157 12895,11147 12889,11142 12883,11138 12878,11133 12872,11129 12860,11119 12854,11114 12843,11107 12837,11102 12831,11097 12825,11092 12813,11083 12807,11078 12801,11073 12789,11063 12771,11048 12758,11037 12746,11027 12740,11022 12734,11017 12727,11012 12721,11008 12708,10996 12702,10991 12696,10986 12689,10981 12676,10971 12663,10960 12650,10950 12644,10944 12637,10938 12631,10932 12624,10926 12617,10920 12611,10915 12597,10904 12584,10893 12570,10881 12563,10876 12556,10871 12549,10865 12542,10860 12535,10854 12528,10848 12514,10836 12500,10824 12485,10813 12471,10802 12464,10796 12456,10789 12449,10782 12442,10776 12434,10769 12427,10761 12419,10756 12404,10744 12389,10732 12374,10720 12359,10708 12351,10702 12343,10695 12335,10688 12327,10681 12320,10674 12304,10662 12296,10656 12288,10649 12280,10643 12271,10636 12263,10630 12255,10624 12247,10617 12239,10610 12222,10598 12214,10590 12205,10584 12197,10578 12188,10572 12180,10564 12171,10556 12154,10541 12145,10533 12128,10517 12119,10508 12110,10500 12101,10493 12083,10477 12074,10470 12065,10464 12056,10455 12046,10448 12037,10440 12028,10433 12018,10425 12000,10408 11990,10401 11971,10385 11961,10377 11951,10368 11942,10359 11932,10351 11922,10344 11912,10335 11902,10327 11892,10319 11882,10310 11872,10301 11861,10292 11851,10284 11841,10274 11830,10265 11820,10256 11809,10246 11799,10238 11788,10229 11777,10220 11767,10210 11756,10199 11745,10190 11723,10171 11712,10160 11701,10151 11689,10141 11678,10132 11666,10122 11655,10112 11643,10103 11632,10092 11620,10082 11608,10071 11584,10052 11572,10042 11560,10031 11548,10020 11536,10009 11523,9998 11511,9988 11498,9977 11486,9967 11473,9956 11460,9944 11447,9934 11434,9923 11421,9911 11408,9900 11395,9888 11381,9877 11368,9865 11354,9854 11340,9843 11326,9830 11313,9818 11298,9807 11284,9795 11270,9783 11256,9770 11241,9758 11226,9745 11212,9732 11197,9718 11182,9705 11167,9693 11151,9680 11136,9666 11120,9653 11105,9640 11089,9626 11073,9612 11057,9599 11041,9585 11024,9570 11008,9556 10991,9543 10974,9529 10957,9514 10940,9499 10922,9483 10905,9469 10887,9453 10869,9438 10851,9422 10833,9407 10814,9391 10796,9374 10777,9358 10758,9341 10738,9323 10719,9306 10699,9289 10679,9272 10659,9255 10639,9237 10618,9219 10597,9200 10576,9180 10555,9161 10533,9141 10511,9122 10489,9102 10467,9082 10444,9061 10421,9040 10397,9019 10374,8996 10350,8973 10325,8949 10301,8924 10276,8898 10250,8870 10225,8839 10198,8803 10172,8761 10145,8712 10118,8672 10090,8639 10062,8615 10033,8593 10004,8571 9974,8549 9944,8527 9913,8505 9882,8481 9850,8457 9818,8432 9785,8408 9751,8383 9717,8358 9682,8333 9647,8307 9610,8280 9573,8253 9535,8226 9496,8198 9457,8168 9416,8139 9375,8108 9332,8077 9289,8045 9244,8013 9198,7980 9151,7946 9103,7911 9053,7875 9002,7839 8949,7802 8895,7765 8839,7728 8781,7690 8721,7651 8659,7610 8595,7569 8529,7525 8459,7481 8387,7433 8312,7383 8234,7330 8152,7272 8066,7208 7975,7142 7880,7072 7779,6997 7672,6917 7558,6827 7437,6727 7306,6613 7165,6493 7011,6365 6843,6231 6657,6092 6450,5950 6214,5796 5942,5650 5620,5475 5227,5304 4719,5143 4004,4976 2782,4771"/>
 <path fill="none" stroke="rgb(0,69,134)" stroke-width="80" stroke-linejoin="round" d="M 26067,23027 L 25650,23027 24865,22186 24818,21694 24558,21694 24440,21694 24399,21345 24385,21345 24034,21345 23942,21345 23824,21074 23816,20853 23725,20853 23550,20853 23490,20853 23305,20666 23064,20666 23005,20666 22971,20666 22839,20666 22757,20666 22604,20666 22570,20504 22544,20504 22419,20504 22391,20504 22384,20504 22353,20504 22345,20362 22280,20234 22125,20234 22081,20234 22031,20234 21984,20234 21958,20234 21924,20118 21814,20118 21761,20118 21736,20118 21717,20118 21707,20118 21674,20118 21564,20118 21492,20118 21479,20118 21459,20118 21445,20118 21435,20013 21416,20013 21402,20013 21398,19916 21388,19916 21377,19916 21359,19916 21356,19916 21259,19916 21241,19916 21192,19916 21125,19916 21114,19916 20962,19916 20957,19826 20884,19826 20864,19826 20795,19826 20726,19742 20719,19664 20698,19664 20607,19664 20559,19664 20533,19664 20522,19664 20506,19664 20506,19590 20484,19590 20475,19590 20464,19590 20450,19590 20430,19590 20421,19590 20405,19590 20395,19590 20375,19590 20364,19590 20354,19590 20334,19590 20324,19590 20304,19590 20284,19590 20270,19590 20231,19590 20219,19590 20198,19521 20164,19521 20161,19521 20153,19455 20146,19455 20138,19393 20134,19393 20114,19393 20106,19393 20095,19334 20092,19334 20067,19334 20059,19334 20050,19334 20030,19334 20024,19334 20010,19334 19984,19334 19977,19334 19952,19334 19942,19334 19935,19277 19906,19277 19896,19277 19885,19277 19873,19224 19831,19224 19807,19224 19803,19224 19777,19224 19775,19172 19763,19172 19745,19172 19737,19122 19726,19122 19718,19122 19677,19122 19675,19075 19666,19075 19654,19075 19640,19075 19626,19075 19617,19029 19612,19029 19595,19029 19593,18985 19580,18942 19572,18942 19556,18942 19537,18942 19526,18901 19504,18861 19483,18861 19471,18823 19460,18823 19448,18786 19444,18749 19431,18749 19418,18749 19401,18749 19383,18714 19374,18714 19364,18714 19336,18714 19299,18680 19287,18647 19279,18647 19268,18647 19250,18647 19236,18647 19224,18647 19209,18615 19191,18615 19190,18583 19179,18583 19163,18552 19152,18552 19139,18552 19119,18552 19117,18552 19077,18552 19061,18552 19060,18522 19030,18522 19028,18493 18997,18493 18991,18493 18976,18493 18967,18493 18953,18465 18937,18465 18926,18437 18910,18437 18881,18409 18870,18409 18861,18383 18855,18383 18837,18357 18819,18331 18800,18306 18784,18306 18774,18306 18772,18282 18756,18282 18738,18282 18732,18258 18714,18258 18703,18258 18699,18234 18672,18234 18664,18234 18649,18234 18640,18211 18631,18211 18616,18211 18590,18211 18583,18188 18565,18188 18548,18188 18539,18188 18528,18166 18522,18144 18512,18144 18501,18144 18494,18123 18486,18123 18473,18123 18451,18123 18443,18102 18428,18102 18406,18102 18404,18102 18398,18081 18390,18061 18372,18061 18365,18041 18356,18041 18349,18041 18345,18021 18335,18021 18319,18021 18313,18001 18309,18001 18308,17982 18291,17982 18290,17963 18278,17963 18275,17945 18258,17945 18251,17945 18224,17945 18212,17945 18210,17927 18194,17927 18187,17909 18183,17891 18171,17891 18153,17891 18141,17891 18138,17874 18128,17874 18112,17874 18103,17856 18102,17856 18085,17856 18082,17839 18074,17839 18060,17839 18046,17839 18034,17839 18029,17823 18019,17823 18007,17806 17998,17790 17998,17774 17991,17758 17990,17742 17976,17742 17967,17727 17966,17712 17964,17712 17960,17697 17948,17697 17944,17682 17943,17667 17943,17652 17936,17652 17909,17638 17896,17624 17886,17610 17879,17610 17863,17610 17838,17610 17822,17610 17809,17610 17803,17596 17796,17596 17785,17596 17770,17596 17764,17582 17759,17582 17739,17582 17736,17569 17730,17569 17726,17555 17721,17542 17718,17542 17705,17529 17703,17516 17697,17503 17693,17491 17690,17491 17675,17478 17673,17466 17670,17453 17662,17453 17650,17441 17648,17441 17638,17429 17635,17429 17632,17417 17625,17405 17619,17405 17610,17393 17603,17393 17595,17382 17587,17370 17581,17348 17570,17348 17569,17336 17565,17325 17555,17314 17549,17314 17537,17314 17512,17304 17509,17304 17498,17304 17485,17282 17482,17271 17471,17271 17462,17261 17456,17251 17444,17240 17442,17230 17427,17230 17417,17220 17416,17220 17414,17210 17402,17210 17388,17210 17374,17200 17373,17190 17373,17180 17360,17180 17348,17180 17334,17180 17325,17170 17318,17170 17307,17151 17305,17151 17299,17142 17289,17142 17279,17142 17277,17132 17267,17113 17264,17113 17255,17104 17251,17104 17238,17095 17236,17086 17235,17077 17219,17068 17210,17068 17197,17059 17189,17059 17180,17059 17169,17050 17167,17042 17155,17042 17141,17042 17140,17033 17132,17024 17124,17024 17113,17024 17097,17016 17087,17007 17086,17007 17070,17007 17062,16999 17059,16999 17048,16982 17044,16982 17030,16974 17029,16966 17022,16957 17015,16949 17010,16941 17002,16933 16996,16917 16991,16917 16988,16902 16977,16894 16975,16886 16959,16886 16952,16879 16947,16871 16941,16863 16933,16856 16926,16848 16922,16848 16908,16841 16907,16834 16899,16826 16894,16826 16887,16812 16880,16805 16871,16797 16864,16790 16862,16783 16853,16783 16839,16783 16825,16776 16820,16769 16812,16769 16795,16762 16780,16755 16770,16748 16762,16742 16757,16742 16742,16742 16729,16735 16726,16728 16720,16715 16715,16708 16701,16708 16697,16701 16683,16701 16671,16695 16667,16688 16655,16682 16654,16675 16644,16675 16633,16656 16619,16656 16613,16650 16603,16644 16592,16644 16592,16637 16581,16625 16578,16625 16563,16619 16548,16619 16543,16612 16538,16600 16524,16588 16508,16588 16503,16582 16497,16570 16496,16570 16482,16559 16475,16547 16468,16541 16453,16535 16452,16530 16441,16524 16428,16518 16427,16518 16415,16507 16412,16507 16400,16507 16380,16507 16371,16501 16359,16496 16356,16490 16351,16479 16343,16479 16330,16474 16322,16468 16317,16457 16312,16452 16308,16441 16302,16441 16288,16436 16281,16426 16276,16420 16271,16415 16262,16405 16245,16405 16240,16400 16232,16400 16221,16394 16207,16389 16205,16384 16194,16374 16191,16369 16180,16364 16177,16359 16166,16349 16152,16349 16143,16344 16139,16344 16134,16335 16123,16325 16120,16320 16113,16320 16102,16306 16099,16306 16085,16306 16076,16291 16073,16282 16072,16282 16055,16277 16044,16277 16040,16268 16033,16254 16030,16245 16015,16245 16011,16241 16000,16236 15989,16227 15975,16223 15970,16214 15961,16214 15948,16205 15938,16201 15933,16201 15919,16197 15907,16197 15903,16184 15891,16184 15881,16175 15877,16175 15865,16166 15861,16162 15851,16162 15837,16154 15833,16150 15824,16150 15809,16145 15802,16133 15794,16125 15789,16117 15783,16113 15769,16113 15755,16109 15742,16104 15738,16096 15726,16088 15713,16085 15700,16081 15686,16077 15672,16073 15670,16065 15659,16061 15656,16057 15646,16057 15630,16053 15617,16049 15605,16049 15602,16042 15590,16038 15584,16030 15576,16023 15571,16015 15566,16000 15563,16000 15551,15989 15550,15989 15533,15986 15519,15982 15508,15978 15506,15971 15495,15964 15476,15960 15467,15960 15454,15957 15439,15953 15431,15950 15425,15950 15412,15943 15396,15943 15394,15935 15384,15932 15377,15922 15371,15922 15359,15908 15356,15904 15346,15894 15343,15891 15330,15887 15326,15884 15316,15884 15303,15874 15301,15867 15294,15857 15288,15854 15275,15851 15261,15848 15246,15848 15242,15844 15233,15838 15219,15835 15211,15828 15205,15825 15193,15822 15182,15815 15179,15806 15174,15803 15165,15790 15151,15778 15138,15766 15130,15760 15123,15757 15110,15754 15101,15751 15096,15748 15084,15736 15083,15736 15071,15724 15069,15724 15056,15709 15054,15706 15041,15706 15027,15700 15022,15698 15013,15686 15010,15683 15000,15678 14986,15678 14979,15672 14972,15672 14961,15655 14959,15652 14945,15650 14936,15644 14931,15644 14920,15630 14918,15628 14913,15617 14904,15606 14894,15603 14891,15603 14883,15590 14876,15582 14867,15577 14863,15577 14857,15564 14848,15551 14835,15544 14825,15533 14821,15528 14819,15523 14808,15513 14806,15511 14800,15499 14794,15496 14783,15482 14781,15479 14775,15472 14767,15463 14765,15458 14757,15446 14753,15441 14739,15437 14735,15432 14725,15423 14719,15416 14711,15411 14703,15402 14698,15398 14692,15391 14686,15378 14684,15376 14676,15367 14669,15358 14661,15349 14657,15345 14646,15332 14642,15332 14629,15322 14621,15313 14614,15311 14601,15301 14597,15299 14588,15299 14582,15286 14575,15276 14571,15272 14560,15266 14551,15258 14546,15258 14533,15254 14526,15246 14519,15238 14517,15230 14505,15228 14501,15220 14492,15216 14485,15205 14478,15201 14475,15191 14468,15180 14464,15174 14452,15161 14450,15161 14440,15154 14438,15154 14423,15141 14416,15139 14409,15139 14394,15127 14385,15112 14382,15111 14367,15100 14355,15090 14352,15088 14340,15077 14337,15074 14327,15064 14325,15060 14312,15043 14302,15033 14299,15030 14294,15020 14286,15013 14273,15007 14271,15005 14257,14996 14255,14992 14244,14983 14242,14981 14231,14978 14217,14972 14215,14967 14204,14962 14196,14954 14190,14946 14182,14942 14177,14930 14174,14926 14163,14911 14154,14899 14149,14892 14143,14885 14135,14874 14123,14861 14120,14855 14115,14847 14106,14844 14095,14834 14086,14820 14080,14813 14077,14809 14068,14795 14065,14794 14057,14779 14051,14772 14048,14767 14039,14760 14033,14752 14024,14747 14021,14743 14012,14727 13996,14714 13984,14704 13981,14702 13969,14686 13959,14673 13956,14670 13941,14662 13928,14649 13915,14640 13912,14636 13902,14622 13886,14614 13883,14610 13873,14602 13870,14595 13860,14583 13847,14570 13833,14557 13830,14553 13820,14545 13816,14542 13806,14529 13793,14514 13782,14502 13779,14496 13772,14486 13765,14484 13754,14475 13751,14472 13740,14463 13737,14462 13723,14455 13719,14451 13708,14434 13694,14420 13686,14408 13679,14404 13672,14397 13668,14392 13657,14381 13653,14376 13650,14371 13638,14357 13627,14345 13623,14339 13612,14328 13601,14316 13597,14311 13589,14301 13585,14300 13577,14290 13570,14281 13566,14274 13558,14267 13554,14265 13542,14253 13538,14249 13530,14236 13518,14221 13514,14218 13506,14208 13502,14202 13498,14195 13490,14182 13478,14169 13474,14164 13470,14156 13461,14144 13449,14128 13436,14116 13432,14110 13419,14102 13411,14088 13407,14084 13398,14077 13394,14071 13389,14065 13376,14048 13368,14036 13363,14031 13359,14026 13350,14013 13341,13998 13337,13997 13328,13986 13324,13974 13319,13971 13310,13960 13306,13954 13296,13939 13292,13927 13287,13919 13283,13913 13274,13900 13269,13896 13264,13889 13255,13875 13246,13860 13241,13851 13232,13838 13227,13836 13217,13823 13213,13815 13208,13808 13203,13797 13198,13780 13189,13769 13184,13763 13179,13757 13174,13752 13164,13739 13159,13732 13145,13716 13135,13704 13130,13699 13125,13693 13120,13686 13115,13678 13105,13664 13094,13650 13089,13642 13084,13629 13079,13623 13074,13615 13069,13608 13064,13598 13053,13587 13048,13579 13043,13572 13037,13566 13027,13553 13022,13546 13006,13529 13000,13521 12995,13513 12989,13503 12984,13493 12978,13487 12973,13480 12968,13469 12962,13461 12957,13447 12951,13440 12940,13425 12929,13409 12923,13398 12912,13381 12906,13375 12895,13357 12883,13343 12878,13335 12872,13327 12866,13318 12854,13308 12843,13293 12837,13282 12831,13273 12825,13264 12813,13250 12807,13239 12801,13229 12789,13214 12777,13198 12771,13191 12765,13182 12758,13174 12746,13155 12740,13146 12734,13136 12721,13118 12715,13109 12708,13093 12702,13081 12689,13065 12683,13056 12676,13045 12670,13036 12663,13028 12650,13012 12644,13003 12637,12992 12631,12980 12624,12964 12617,12944 12611,12918 12604,12897 12597,12884 12590,12871 12584,12855 12577,12841 12570,12826 12563,12814 12556,12801 12542,12781 12535,12770 12528,12756 12521,12746 12514,12738 12507,12730 12500,12718 12493,12707 12485,12696 12471,12675 12464,12660 12456,12649 12449,12637 12442,12625 12434,12616 12427,12605 12419,12593 12412,12581 12404,12571 12397,12560 12389,12549 12374,12531 12366,12517 12359,12506 12351,12496 12343,12486 12335,12475 12327,12465 12320,12452 12312,12441 12304,12430 12296,12417 12288,12404 12280,12391 12271,12376 12263,12362 12255,12345 12247,12328 12239,12313 12230,12298 12222,12288 12214,12276 12205,12264 12197,12252 12188,12234 12180,12220 12171,12208 12162,12194 12154,12179 12145,12166 12136,12152 12128,12139 12119,12127 12110,12113 12101,12105 12092,12096 12083,12084 12074,12072 12065,12061 12056,12049 12046,12036 12037,12025 12028,12016 12018,12005 12009,11993 12000,11981 11990,11966 11980,11954 11971,11940 11961,11925 11951,11913 11942,11900 11932,11887 11922,11873 11912,11860 11902,11846 11892,11831 11882,11818 11872,11803 11861,11789 11851,11775 11841,11761 11830,11749 11820,11735 11809,11721 11799,11708 11788,11692 11777,11676 11767,11662 11756,11648 11745,11635 11734,11619 11723,11605 11712,11588 11701,11573 11689,11559 11678,11544 11666,11530 11655,11514 11643,11499 11632,11485 11620,11469 11608,11452 11596,11437 11584,11420 11572,11401 11560,11386 11548,11366 11536,11349 11523,11331 11511,11315 11498,11299 11486,11282 11473,11266 11460,11249 11447,11227 11434,11208 11421,11189 11408,11169 11395,11147 11381,11128 11368,11110 11354,11090 11340,11071 11326,11052 11313,11033 11298,11011 11284,10992 11270,10971 11256,10951 11241,10931 11226,10910 11212,10889 11197,10865 11182,10843 11167,10818 11151,10794 11136,10769 11120,10744 11105,10719 11089,10692 11073,10665 11057,10638 11041,10609 11024,10580 11008,10553 10991,10527 10974,10500 10957,10473 10940,10445 10922,10419 10905,10392 10887,10365 10869,10337 10851,10308 10833,10277 10814,10246 10796,10214 10777,10179 10758,10146 10738,10114 10719,10082 10699,10048 10679,10016 10659,9983 10639,9951 10618,9921 10597,9889 10576,9859 10555,9830 10533,9800 10511,9769 10489,9738 10467,9704 10444,9672 10421,9641 10397,9607 10374,9573 10350,9538 10325,9502 10301,9467 10276,9428 10250,9390 10225,9351 10198,9313 10172,9273 10145,9234 10118,9194 10090,9155 10062,9114 10033,9072 10004,9027 9974,8981 9944,8930 9913,8879 9882,8826 9850,8775 9818,8718 9785,8664 9751,8604 9717,8546 9682,8478 9647,8411 9610,8340 9573,8274 9535,8198 9496,8128 9457,8045 9416,7971 9375,7883 9332,7804 9289,7712 9244,7628 9198,7531 9151,7443 9103,7340 9053,7249 9002,7140 8949,7044 8895,6936 8839,6845 8781,6743 8721,6661 8659,6568 8595,6496 8529,6413 8459,6340 8387,6256 8312,6177 8234,6082 8152,5982 8066,5875 7975,5766 7880,5609 7779,5496 7672,5378 7558,5251 7437,5107 7306,4955 7165,4786 7011,4591 6843,4373 6657,4126 6450,3816 6214,3462 5942,3029 5620,2776 5227,2672 4719,1906 4004,1770 2782,1722"/>
 <text class="TextShape"><tspan class="TextParagraph" font-family="Liberation Sans" font-size="353px" font-weight="400"><tspan class="TextPosition" x="2689" y="23595"><tspan fill="rgb(0,0,0)" stroke="none">1</tspan></tspan></tspan></text>
 <text class="TextShape"><tspan class="TextParagraph" font-family="Liberation Sans" font-size="353px" font-weight="400"><tspan class="TextPosition" x="6658" y="23595"><tspan fill="rgb(0,0,0)" stroke="none">10</tspan></tspan></tspan></text>
 <text class="TextShape"><tspan class="TextParagraph" font-family="Liberation Sans" font-size="353px" font-weight="400"><tspan class="TextPosition" x="10627" y="23595"><tspan fill="rgb(0,0,0)" stroke="none">100</tspan></tspan></tspan></text>
 <text class="TextShape"><tspan class="TextParagraph" font-family="Liberation Sans" font-size="353px" font-weight="400"><tspan class="TextPosition" x="14596" y="23595"><tspan fill="rgb(0,0,0)" stroke="none">1000</tspan></tspan></tspan></text>
 <text class="TextShape"><tspan class="TextParagraph" font-family="Liberation Sans" font-size="353px" font-weight="400"><tspan class="TextPosition" x="18565" y="23595"><tspan fill="rgb(0,0,0)" stroke="none">10000</tspan></tspan></tspan></text>
 <text class="TextShape"><tspan class="TextParagraph" font-family="Liberation Sans" font-size="353px" font-weight="400"><tspan class="TextPosition" x="22534" y="23595"><tspan fill="rgb(0,0,0)" stroke="none">100000</tspan></tspan></tspan></text>
 <text class="TextShape"><tspan class="TextParagraph" font-family="Liberation Sans" font-size="353px" font-weight="400"><tspan class="TextPosition" x="26504" y="23595"><tspan fill="rgb(0,0,0)" stroke="none">1000000</tspan></tspan></tspan></text>
 <text class="TextShape"><tspan class="TextParagraph" font-family="Liberation Sans" font-size="353px" font-weight="400"><tspan class="TextPosition" x="2347" y="23148"><tspan fill="rgb(0,0,0)" stroke="none">1</tspan></tspan></tspan></text>
 <text class="TextShape"><tspan class="TextParagraph" font-family="Liberation Sans" font-size="353px" font-weight="400"><tspan class="TextPosition" x="2162" y="20355"><tspan fill="rgb(0,0,0)" stroke="none">10</tspan></tspan></tspan></text>
 <text class="TextShape"><tspan class="TextParagraph" font-family="Liberation Sans" font-size="353px" font-weight="400"><tspan class="TextPosition" x="1976" y="17562"><tspan fill="rgb(0,0,0)" stroke="none">100</tspan></tspan></tspan></text>
 <text class="TextShape"><tspan class="TextParagraph" font-family="Liberation Sans" font-size="353px" font-weight="400"><tspan class="TextPosition" x="1791" y="14769"><tspan fill="rgb(0,0,0)" stroke="none">1000</tspan></tspan></tspan></text>
 <text class="TextShape"><tspan class="TextParagraph" font-family="Liberation Sans" font-size="353px" font-weight="400"><tspan class="TextPosition" x="1606" y="11977"><tspan fill="rgb(0,0,0)" stroke="none">10000</tspan></tspan></tspan></text>
 <text class="TextShape"><tspan class="TextParagraph" font-family="Liberation Sans" font-size="353px" font-weight="400"><tspan class="TextPosition" x="1421" y="9184"><tspan fill="rgb(0,0,0)" stroke="none">100000</tspan></tspan></tspan></text>
 <text class="TextShape"><tspan class="TextParagraph" font-family="Liberation Sans" font-size="353px" font-weight="400"><tspan class="TextPosition" x="1236" y="6391"><tspan fill="rgb(0,0,0)" stroke="none">1000000</tspan></tspan></tspan></text>
 <text class="TextShape"><tspan class="TextParagraph" font-family="Liberation Sans" font-size="353px" font-weight="400"><tspan class="TextPosition" x="1050" y="3598"><tspan fill="rgb(0,0,0)" stroke="none">10000000</tspan></tspan></tspan></text>
 <text class="TextShape"><tspan class="TextParagraph" font-family="Liberation Sans" font-size="353px" font-weight="400"><tspan class="TextPosition" x="865" y="806"><tspan fill="rgb(0,0,0)" stroke="none">100000000</tspan></tspan></tspan></text>
 <path fill="none" stroke="rgb(0,69,134)" stroke-width="80" stroke-linejoin="round" d="M 27142,11889 L 27942,11889"/>
 <path fill="none" stroke="rgb(255,66,14)" stroke-width="80" stroke-linejoin="round" d="M 27142,12518 L 27942,12518"/>
 <text class="TextShape"><tspan class="TextParagraph" font-family="Liberation Sans" font-size="459px" font-weight="400"><tspan class="TextPosition" x="28042" y="12048"><tspan fill="rgb(0,0,0)" stroke="none">Topics not mapped</tspan></tspan></tspan></text>
 <text class="TextShape"><tspan class="TextParagraph" font-family="Liberation Sans" font-size="459px" font-weight="400"><tspan class="TextPosition" x="28042" y="12677"><tspan fill="rgb(0,0,0)" stroke="none">Topics mapped</tspan></tspan></tspan></text>
 <text class="TextShape"><tspan class="TextParagraph" font-family="Liberation Sans" font-size="459px" font-weight="400"><tspan class="TextPosition" x="12745" y="24010"><tspan fill="rgb(0,0,0)" stroke="none">Number of facts</tspan></tspan></tspan></text>
 <text class="TextShape"><tspan class="TextParagraph" font-family="Liberation Sans" font-size="459px" font-weight="400"><tspan class="TextPosition" x="957" y="16089" transform="translate(957,16089) rotate(-90) translate(-957,-16089)"><tspan fill="rgb(0,0,0)" stroke="none">Number of topics with more than x facts</tspan></tspan></tspan></text>
</svg>